{"title":"Samuel Fuller - White Dog (1982)","uid":8465106,"size":1948598132,"categoryP":"video","categoryS":"movies","magnet":"?xt=urn:btih:3ad1b7aca71c1151e26249d208047212cc766341&amp;dn=Samuel+Fuller+-+White+Dog+%281982%29&amp;tr=udp%3A%2F%2Ftracker.openbittorrent.com%3A80&amp;tr=udp%3A%2F%2Fopen.demonii.com%3A1337&amp;tr=udp%3A%2F%2Ftracker.coppersurfer.tk%3A6969&amp;tr=udp%3A%2F%2Fexodus.desync.com%3A6969","seeders":0,"leechers":1,"uploader":"moonflux","files":1,"time":1368336980,"description":"Complete name : White.Dog.1982.CRiTERiON.DVDRip.x264.mkv\nFormat : Matroska\nFormat version : Version 2\nFile size : 1.81 GiB\nDuration : 1h 30mn\nOverall bit rate : 2 884 Kbps\nEncoded date : UTC 2011-10-28 11:31:32\nWriting application : mkvmerge v5.0.1 ('Es ist Sommer') built on Oct 9 2011 11:55:43\nWriting library : libebml v1.2.2 + libmatroska v1.3.0\n\nVideo\nID : 1\nFormat : AVC\nFormat/Info : Advanced Video Codec\nFormat profile : &lt;a class=&quot;__cf_email__&quot; href=&quot;/cdn-cgi/l/email-protection&quot; data-cfemail=&quot;fab2939d92bab6c9d4cb&quot;&gt;[email&amp;#160;protected]&lt;/a&gt;&lt;script data-cfhash='f9e31' type=&quot;text/javascript&quot;&gt;\n/* &lt;![CDATA[ */!function(){try{var t=&quot;currentScript&quot;in document?document.currentScript:function(){for(var t=document.getElementsByTagName(&quot;script&quot;),e=t.length;e--;)if(t[e].getAttribute(&quot;data-cfhash&quot;))return t[e]}();if(t&amp;&amp;t.previousSibling){var e,r,n,i,c=t.previousSibling,a=c.getAttribute(&quot;data-cfemail&quot;);if(a){for(e=&quot;&quot;,r=parseInt(a.substr(0,2),16),n=2;a.length-n;n+=2)i=parseInt(a.substr(n,2),16)^r,e+=String.fromCharCode(i);e=document.createTextNode(e),c.parentNode.replaceChild(e,c)}t.parentNode.removeChild(t);}}catch(u){}}()/* ]]&gt; */&lt;/script&gt;\nFormat settings, CABAC : Yes\nFormat settings, ReFrames : 8 frames\nMuxing mode : Header stripping\nCodec ID : V_MPEG4/ISO/AVC\nDuration : 1h 30mn\nBit rate : 2 634 Kbps\nWidth : 720 pixels\nHeight : 480 pixels\nDisplay aspect ratio : 16:9\nOriginal display aspect ratio : 16:9\nFrame rate : 23.976 fps\nStandard : NTSC\nColor space : YUV\nChroma subsampling : 4:2:0\nBit depth : 8 bits\nScan type : Progressive\nBits/(Pixel*Frame) : 0.318\nStream size : 1.66 GiB (91%)\nWriting library : x264 core 116 r2019 9cc407d\nEncoding settings : cabac=1 / ref=8 / deblock=1:-2:-2 / analyse=0x3:0x133 / me=umh / subme=10 / psy=1 / psy_rd=1.00:0.00 / mixed_ref=1 / me_range=24 / chroma_me=1 / trellis=2 / 8x8dct=1 / cqm=0 / deadzone=21,11 / fast_pskip=0 / chroma_qp_offset=-2 / threads=6 / sliced_threads=0 / nr=0 / decimate=1 / interlaced=0 / bluray_compat=0 / constrained_intra=0 / bframes=6 / b_pyramid=2 / b_adapt=2 / b_bias=0 / direct=3 / weightb=1 / open_gop=0 / weightp=2 / keyint=250 / keyint_min=23 / scenecut=40 / intra_refresh=0 / rc_lookahead=60 / rc=crf / mbtree=1 / crf=16.7 / qcomp=0.60 / qpmin=0 / qpmax=69 / qpstep=4 / ip_ratio=1.40 / aq=1:1.20\nLanguage : English\n\nAudio\nID : 2\nFormat : AC-3\nFormat/Info : Audio Coding 3\nMode extension : CM (complete main)\nMuxing mode : Header stripping\nCodec ID : A_AC3\nDuration : 1h 30mn\nBit rate mode : Constant\nBit rate : 192 Kbps\nChannel(s) : 1 channel\nChannel positions : Front: C\nSampling rate : 48.0 KHz\nBit depth : 16 bits\nCompression mode : Lossy\nStream size : 124 MiB (7%)\nLanguage : English\n\nText\nID : 3\nFormat : UTF-8\nCodec ID : S_TEXT/UTF8\nCodec ID/Info : UTF-8 Plain Text\nLanguage : English\n\nMenu\n00:00:00.000 : Chapter 1\n00:07:01.234 : Chapter 2\n00:11:32.901 : Chapter 3\n00:18:43.901 : Chapter 4\n00:28:41.869 : Chapter 5\n00:36:59.069 : Chapter 6\n00:48:09.903 : Chapter 7\n00:57:17.303 : Chapter 8\n01:07:15.204 : Chapter 9\n01:13:37.672 : Chapter 10\n01:19:24.172 : Chapter 11\n01:29:59.739 : Chapter 12","torrent":{"xt":"urn:btih:3ad1b7aca71c1151e26249d208047212cc766341","amp;dn":"Samuel+Fuller+-+White+Dog+%281982%29","amp;tr":["udp%3A%2F%2Ftracker.openbittorrent.com%3A80","udp%3A%2F%2Fopen.demonii.com%3A1337","udp%3A%2F%2Ftracker.coppersurfer.tk%3A6969","udp%3A%2F%2Fexodus.desync.com%3A6969"],"infoHash":"3ad1b7aca71c1151e26249d208047212cc766341","infoHashBuffer":{"type":"Buffer","data":[58,209,183,172,167,28,17,81,226,98,73,210,8,4,114,18,204,118,99,65]},"announce":[],"urlList":[]}}